<svg width="118" height="45" viewBox="0 0 118 45" fill="none" xmlns="http://www.w3.org/2000/svg">
<path fill-rule="evenodd" clip-rule="evenodd" d="M104.982 21.7393C105.513 22.3865 106.21 22.8512 106.907 23.316L106.915 23.3077C107.009 23.0489 106.983 22.7733 106.956 22.4978C106.934 22.2608 106.911 22.0237 106.965 21.7973C107.131 21.092 107.919 20.76 108.6 20.4862C109.944 19.9468 111.222 19.2331 112.384 18.3618C115.886 15.7478 118.085 11.9222 116.707 7.47425C115.911 4.88514 114.027 2.63627 111.612 1.3915C109.289 0.196526 106.583 -0.0690235 103.969 0.0139608C101.745 0.0886467 99.4881 0.403987 97.455 1.30022C95.4219 2.19645 93.5879 3.71506 92.6419 5.73158C91.6959 7.7481 91.7291 10.2708 93.007 12.0965C94.1024 13.6566 95.9364 14.5445 97.7869 14.9677C99.0649 15.26 100.374 15.3583 101.686 15.4568C102.273 15.5009 102.861 15.5451 103.446 15.6067C103.969 15.6565 104.534 15.7478 104.865 16.1544C105.239 16.6108 105.164 17.283 104.94 17.8224C104.865 18.004 104.776 18.181 104.688 18.3576C104.513 18.7056 104.34 19.0525 104.268 19.4323C104.11 20.2455 104.451 21.092 104.982 21.7393ZM112.699 27.349C112.691 26.1208 111.28 24.7433 110.027 24.7433C108.442 24.6022 107.106 26.0544 107.222 27.6145C107.314 28.8427 108.177 30.0377 109.762 30.0045C111.272 29.963 112.699 28.7016 112.699 27.349Z" fill="#E84570"/>
<path d="M9.57513 28.0728C9.57513 26.7049 9.29188 25.641 8.72539 24.8811C8.15889 24.1211 7.27461 23.7412 6.07254 23.7412C4.71848 23.7412 3.56477 24.2524 2.6114 25.2749L0.393782 23.2852C1.19516 22.3595 2.07945 21.6755 3.04663 21.2334C4.02763 20.7913 5.13299 20.5702 6.36269 20.5702C8.61485 20.5702 10.3005 21.192 11.4197 22.4355C12.5389 23.679 13.0984 25.413 13.0984 27.6376V33.2749H9.57513V28.0728ZM5.11917 26.9951V33.2749H1.59585V27.4096L5.11917 26.9951ZM24.8478 19.6997C22.347 21.3578 20.606 22.8016 19.625 24.0313C18.6579 25.261 18.1743 26.4217 18.1743 27.5132C18.1743 28.4389 18.4437 29.1712 18.9826 29.7101C19.5352 30.2489 20.2399 30.5184 21.0965 30.5184C21.8979 30.5184 22.5611 30.2559 23.0862 29.7308C23.6112 29.192 23.8737 28.508 23.8737 27.679C23.8737 27.2783 23.7494 26.8707 23.5007 26.4562C23.2658 26.0417 22.9066 25.6548 22.423 25.2956L24.5162 22.8707C25.5387 23.5477 26.271 24.2455 26.7131 24.964C27.1691 25.6686 27.3971 26.5736 27.3971 27.679C27.3971 28.7982 27.1207 29.8137 26.568 30.7256C26.0154 31.6237 25.2554 32.3353 24.2883 32.8603C23.3349 33.3716 22.271 33.6272 21.0965 33.6272C19.8807 33.6272 18.7822 33.3716 17.8012 32.8603C16.8202 32.3353 16.0465 31.6099 15.48 30.6842C14.9273 29.7584 14.6509 28.7015 14.6509 27.5132C14.6509 25.8552 15.252 24.211 16.4541 22.5806C17.6699 20.9363 19.7287 19.1678 22.6302 17.2749L24.8478 19.6997ZM32.6106 20.8396V27.907L29.0873 28.3215V20.8396H32.6106ZM45.45 33.2749H41.9267V27.3059C41.9267 24.888 40.9387 23.679 38.9629 23.679C38.3964 23.679 37.823 23.7964 37.2427 24.0313C36.6624 24.2524 36.1443 24.5287 35.6883 24.8603L34.1132 22.4769C34.8731 21.8828 35.709 21.4199 36.621 21.0883C37.5329 20.7567 38.4586 20.5909 39.3982 20.5909C41.2911 20.5909 42.7695 21.1229 43.8334 22.1868C44.9111 23.2369 45.45 24.8673 45.45 27.078V33.2749ZM51.3263 33.2749H47.803V20.8396H51.3263V33.2749ZM63.3791 19.6997C60.8782 21.3578 59.1373 22.8016 58.1563 24.0313C57.1891 25.261 56.7055 26.4217 56.7055 27.5132C56.7055 28.4389 56.9749 29.1712 57.5138 29.7101C58.0665 30.2489 58.7711 30.5184 59.6278 30.5184C60.4292 30.5184 61.0924 30.2559 61.6174 29.7308C62.1425 29.192 62.405 28.508 62.405 27.679C62.405 27.2783 62.2806 26.8707 62.0319 26.4562C61.7971 26.0417 61.4378 25.6548 60.9542 25.2956L63.0475 22.8707C64.0699 23.5477 64.8022 24.2455 65.2444 24.964C65.7003 25.6686 65.9283 26.5736 65.9283 27.679C65.9283 28.7982 65.652 29.8137 65.0993 30.7256C64.5466 31.6237 63.7867 32.3353 62.8195 32.8603C61.8661 33.3716 60.8022 33.6272 59.6278 33.6272C58.4119 33.6272 57.3135 33.3716 56.3325 32.8603C55.3515 32.3353 54.5777 31.6099 54.0112 30.6842C53.4585 29.7584 53.1822 28.7015 53.1822 27.5132C53.1822 25.8552 53.7832 24.211 54.9853 22.5806C56.2012 20.9363 58.2599 19.1678 61.1615 17.2749L63.3791 19.6997ZM72.2726 30.4769C73.2674 30.3664 74.055 30.0072 74.6353 29.3992C75.2294 28.7774 75.5265 27.9899 75.5265 27.0365C75.5265 26.4424 75.3814 25.8966 75.0913 25.3992C74.8011 24.888 74.4004 24.4873 73.8892 24.1971C73.3918 23.8932 72.8322 23.7412 72.2105 23.7412C70.8702 23.7412 69.7579 24.3422 68.8737 25.5443L66.3452 23.6583C67.1189 22.6635 68.0377 21.9035 69.1016 21.3785C70.1794 20.8396 71.3262 20.5702 72.5421 20.5702C73.7994 20.5702 74.9186 20.8465 75.8996 21.3992C76.8944 21.9381 77.6681 22.698 78.2208 23.679C78.7735 24.66 79.0498 25.7792 79.0498 27.0365C79.0498 28.28 78.7873 29.3716 78.2623 30.3111C77.751 31.2507 77.0395 31.9899 76.1275 32.5287C75.2156 33.0676 74.1655 33.3923 72.9773 33.5028L72.2726 30.4769ZM71.0706 36.3837H67.5472V27.4096L71.0706 26.9951V36.3837ZM84.5607 33.2749H81.0374V20.8396H84.5607V33.2749ZM97.6497 25.1091C97.6497 26.1868 97.3043 27.078 96.6135 27.7826C95.9226 28.4873 94.99 28.964 93.8155 29.2127C94.4097 29.5305 94.8311 30.0348 95.0798 30.7256C95.3423 31.4027 95.4736 32.2524 95.4736 33.2749H91.8259C91.8259 32.5011 91.7499 31.8863 91.5979 31.4303C91.4459 30.9605 91.1558 30.6013 90.7275 30.3526C90.3129 30.1039 89.7119 29.9795 88.9243 29.9795V27.2438H91.3492C92.1782 27.2438 92.8484 27.078 93.3596 26.7464C93.8708 26.4148 94.1264 25.9657 94.1264 25.3992C94.1264 24.8465 93.8846 24.4251 93.401 24.135C92.9313 23.8448 92.3026 23.6997 91.515 23.6997C90.0504 23.6997 88.7793 24.0728 87.7015 24.8189L86.1679 22.4562C86.8449 21.945 87.6532 21.5097 88.5927 21.1505C89.5323 20.7774 90.5478 20.5909 91.6394 20.5909C93.5461 20.5909 95.0245 20.9985 96.0746 21.8137C97.1247 22.6289 97.6497 23.7274 97.6497 25.1091Z" fill="black"/>
</svg>
